<?xml version="1.0" encoding="UTF-8" standalone="no"?>
<!-- Created with Inkscape (http://www.inkscape.org/) -->

<svg
   width="210mm"
   height="297mm"
   viewBox="0 0 210 297"
   version="1.1"
   id="svg8"
   inkscape:version="1.3.2 (091e20e, 2023-11-25, custom)"
   sodipodi:docname="CentralPlaza.svg"
   xmlns:inkscape="http://www.inkscape.org/namespaces/inkscape"
   xmlns:sodipodi="http://sodipodi.sourceforge.net/DTD/sodipodi-0.dtd"
   xmlns="http://www.w3.org/2000/svg"
   xmlns:svg="http://www.w3.org/2000/svg"
   xmlns:rdf="http://www.w3.org/1999/02/22-rdf-syntax-ns#"
   xmlns:cc="http://creativecommons.org/ns#"
   xmlns:dc="http://purl.org/dc/elements/1.1/">
  <defs
     id="defs2" />
  <sodipodi:namedview
     id="base"
     pagecolor="#ffffff"
     bordercolor="#666666"
     borderopacity="1.0"
     inkscape:pageopacity="0.0"
     inkscape:pageshadow="2"
     inkscape:zoom="0.71446409"
     inkscape:cx="394.00161"
     inkscape:cy="560.56001"
     inkscape:document-units="mm"
     inkscape:current-layer="g1313"
     showgrid="false"
     inkscape:window-width="1920"
     inkscape:window-height="1011"
     inkscape:window-x="-8"
     inkscape:window-y="-8"
     inkscape:window-maximized="1"
     inkscape:pagecheckerboard="0"
     inkscape:showpageshadow="2"
     inkscape:deskcolor="#d1d1d1" />
  <metadata
     id="metadata5">
    <rdf:RDF>
      <cc:Work
         rdf:about="">
        <dc:format>image/svg+xml</dc:format>
        <dc:type
           rdf:resource="http://purl.org/dc/dcmitype/StillImage" />
        <dc:title />
      </cc:Work>
    </rdf:RDF>
  </metadata>
  <g
     inkscape:label="Layer 1"
     inkscape:groupmode="layer"
     id="layer1">
    <g
       id="g1313"
       transform="matrix(0.30133196,0,0,0.30133196,142.07866,-30.20171)">
      <g
         style="fill:none;stroke:#000000;stroke-width:10;stroke-linecap:square;stroke-opacity:1"
         id="g822"
         transform="matrix(0.18708867,-0.18708867,0.18708867,0.18708867,-3015.5154,-223.16631)">
        <path
           d="m 6261.92,9289.85 c 66.07,97.23 74.05,224.32 19.35,328.66 v 0 l 378.5,229.62 c 141.8,-248.19 132.87,-554.44 -22.83,-794.07 v 0 z"
           id="path820" />
      </g>
      <g
         style="fill:none;stroke:#ff0000;stroke-width:10;stroke-linecap:square;stroke-opacity:1"
         id="g826"
         transform="matrix(0.18708867,-0.18708867,0.18708867,0.18708867,-3015.5154,-223.16631)">
        <path
           d="m 5997.33,9469.65 669.71,406.28 z"
           id="path824" />
      </g>
      <g
         style="fill:none;stroke:#000000;stroke-width:10;stroke-linecap:square;stroke-opacity:1"
         id="g830"
         transform="matrix(0.18708867,-0.18708867,0.18708867,0.18708867,-3015.5154,-223.16631)">
        <path
           d="m 6260.53,9652.7 c -52.24,75.12 -133.93,124.17 -224.75,135.15 -90.76,10.96 -181.92,-17.35 -250.49,-77.83 v 0 l -313.11,313.19 c 164.94,156.47 390.99,231.2 616.69,203.93 225.63,-27.27 427.24,-153.67 550.16,-344.82 v 0 z"
           id="path828" />
      </g>
      <g
         style="fill:none;stroke:#000000;stroke-width:10;stroke-linecap:square;stroke-opacity:1"
         id="g834"
         transform="matrix(0.18708867,-0.18708867,0.18708867,0.18708867,-3015.5154,-223.16631)">
        <path
           d="m 5757.01,9681.74 c -60.51,-68.56 -88.83,-159.66 -77.89,-250.44 10.92,-90.67 60.07,-172.59 135.04,-224.78 v 0 l -229.77,-378.4 c -191.18,123.06 -317.13,324.62 -344.32,550.29 -27.15,225.34 47.51,451.83 203.83,616.53 v 0 z"
           id="path832" />
      </g>
      <g
         style="fill:none;stroke:#000000;stroke-width:10;stroke-linecap:square;stroke-opacity:1"
         id="g838"
         transform="matrix(0.18708867,-0.18708867,0.18708867,0.18708867,-3015.5154,-223.16631)">
        <path
           d="m 5848.34,9185.77 c 105.16,-55.19 230.69,-47.34 328.72,19.24 v 0 l 235.71,-375.07 c -239.52,-155.55 -546.23,-164.39 -794.2,-22.57 v 0 z"
           id="path836" />
      </g>
      <g
         style="fill:none;stroke:#000000;stroke-width:10;stroke-linecap:square;stroke-opacity:1"
         id="g842"
         transform="matrix(0.18708867,-0.18708867,0.18708867,0.18708867,-3015.5154,-223.16631)">
        <path
           d="m 5660.73,10197.9 c 173.5,149.75 366.38,288.43 564.32,404.05 v 0 l 124.9,-216.48 c -73.88,-43.19 -130.41,-79.57 -201.21,-127.63 -165.3,31.76 -335.27,10.65 -488.01,-59.94 z"
           id="path840" />
      </g>
      <g
         style="fill:none;stroke:#000000;stroke-width:10;stroke-linecap:square;stroke-opacity:1"
         id="g846"
         transform="matrix(0.18708867,-0.18708867,0.18708867,0.18708867,-3015.5154,-223.16631)">
        <path
           d="m 5269.27,9806.53 c -149.6,-173.18 -288.82,-366.48 -404.34,-564.1 v 0 l 216.42,-125 c 43.92,75.06 78.95,129.14 127.81,201.06 -31.7,165.31 -10.54,335.34 60.11,488.04 z"
           id="path844" />
      </g>
      <g
         style="fill:none;stroke:#000000;stroke-width:10;stroke-linecap:square;stroke-opacity:1"
         id="g850"
         transform="matrix(0.18708867,-0.18708867,0.18708867,0.18708867,-3015.5154,-223.16631)">
        <path
           d="m 6202.35,10245.67 c 49.02,32.51 116.81,75.47 167.59,105.17 v 0 l 163.31,-283.07 c -95.08,85.19 -207.54,145.31 -330.9,177.9 z"
           id="path848" />
      </g>
      <g
         style="fill:none;stroke:#000000;stroke-width:10;stroke-linecap:square;stroke-opacity:1"
         id="g854"
         transform="matrix(0.18708867,-0.18708867,0.18708867,0.18708867,-3015.5154,-223.16631)">
        <path
           d="m 5221.31,9264.88 c -31.58,-47.59 -76.47,-118.14 -105.33,-167.45 v 0 L 5399,8933.98 c -85.19,95.15 -145.12,207.48 -177.69,330.9 z"
           id="path852" />
      </g>
    </g>
    <text
       xml:space="preserve"
       style="font-style:normal;font-weight:normal;font-size:5.64444px;line-height:1.25;font-family:sans-serif;fill:#000000;fill-opacity:1;stroke:none;stroke-width:0.264583"
       x="31.477556"
       y="195.90149"
       id="text3451"><tspan
         sodipodi:role="line"
         id="tspan3449"
         style="font-size:5.64444px;stroke-width:0.264583"
         x="31.477556"
         y="195.90149">The Center Camp area has a number of oddities. </tspan><tspan
         sodipodi:role="line"
         style="font-size:5.64444px;stroke-width:0.264583"
         x="31.477556"
         y="202.95705"
         id="tspan6687">The 3:00 and 9:00 roads aren't really along the radii </tspan><tspan
         sodipodi:role="line"
         style="font-size:5.64444px;stroke-width:0.264583"
         x="31.477556"
         y="210.01259"
         id="tspan6689">that you expect. Instead they run along the line </tspan><tspan
         sodipodi:role="line"
         style="font-size:5.64444px;stroke-width:0.264583"
         x="31.477556"
         y="217.06815"
         id="tspan6691">the center to where the 5:30 and 6:30 roads intersect</tspan><tspan
         sodipodi:role="line"
         style="font-size:5.64444px;stroke-width:0.264583"
         x="31.477556"
         y="224.12369"
         id="tspan6693">A. This is shown as the red line.</tspan></text>
    <text
       xml:space="preserve"
       style="font-style:normal;font-weight:normal;font-size:5.64444px;line-height:1.25;font-family:sans-serif;fill:#000000;fill-opacity:1;stroke:none;stroke-width:0.264583"
       x="31.477556"
       y="234.89259"
       id="text15651"><tspan
         sodipodi:role="line"
         id="tspan15649"
         style="font-size:5.64444px;stroke-width:0.264583"
         x="31.477556"
         y="234.89259">Then there are the small blocks between A-B and B-C. </tspan></text>
  </g>
</svg>
